<?xml version="1.0" encoding="utf-8"?>
<!-- Generator: Adobe Illustrator 24.2.0, SVG Export Plug-In . SVG Version: 6.00 Build 0)  -->
<svg version="1.1" id="图层_1" xmlns="http://www.w3.org/2000/svg" xmlns:xlink="http://www.w3.org/1999/xlink" x="0px" y="0px"
	 viewBox="0 0 60 60" style="enable-background:new 0 0 60 60;" xml:space="preserve">
<style type="text/css">
	.st0{fill:#00A0DC;}
</style>
<path class="st0" d="M33.5,0.9l20.4,11.8c2,1.2,3.2,3.3,3.2,5.6v23.5c0,2.3-1.2,4.5-3.2,5.6L33.5,59.1c-2,1.2-4.5,1.2-6.5,0
	L6.6,47.4c-2-1.2-3.2-3.3-3.2-5.6V18.2c0-2.3,1.2-4.5,3.2-5.6L27,0.9C29-0.3,31.5-0.3,33.5,0.9z M29,4.3L8.6,16.1
	c-0.8,0.4-1.2,1.3-1.2,2.1v23.5c0,0.9,0.5,1.7,1.2,2.1L29,55.7c0.8,0.4,1.7,0.4,2.5,0l20.4-11.8c0.8-0.4,1.2-1.3,1.2-2.1V18.2
	c0-0.9-0.5-1.7-1.2-2.1L31.5,4.3C30.7,3.9,29.8,3.9,29,4.3z M40.3,21.8c1-0.6,2.2-0.2,2.7,0.7c0.6,1,0.2,2.2-0.7,2.7l-10,5.8v11.8
	c0,1.1-0.9,2-2,2c-1.1,0-2-0.9-2-2V31.2l-10-5.8c-1-0.6-1.3-1.8-0.7-2.7c0.6-1,1.8-1.3,2.7-0.7l10,5.8L40.3,21.8z"/>
</svg>
