<?xml version="1.0" standalone="no"?><!DOCTYPE svg PUBLIC "-//W3C//DTD SVG 1.1//EN" "http://www.w3.org/Graphics/SVG/1.1/DTD/svg11.dtd"><svg class="icon" width="60px" height="57.10px" viewBox="0 0 1076 1024" version="1.1" xmlns="http://www.w3.org/2000/svg"><path d="M244.566515 489.133031m24.456652 0l220.109864 0q24.456652 0 24.456651 24.456651l0 48.913303q0 24.456652-24.456651 24.456652l-220.109864 0q-24.456652 0-24.456652-24.456652l0-48.913303q0-24.456652 24.456652-24.456651Z" fill="#00a0dc" /><path d="M749.22952 999.445522l-55.712252-96.505947a147.987198 147.987198 0 0 1-24.187629 1.980989 148.158395 148.158395 0 0 1-18.978361-1.222833l-55.247576 95.747791a24.456652 24.456652 0 0 1-33.407786 8.951134l-84.766754-48.913303a24.456652 24.456652 0 0 1-8.951135-33.407786l65.250347-112.98973a146.177406 146.177406 0 0 1-10.614187-54.905183 146.739909 146.739909 0 0 1 146.739909-146.739909 146.739909 146.739909 0 0 1 146.739909 146.739909 146.739909 146.739909 0 0 1-8.388631 48.913303l68.625364 118.90824a24.456652 24.456652 0 0 1-8.951134 33.407786l-84.693385 48.913303a24.285455 24.285455 0 0 1-12.228326 3.277192 24.456652 24.456652 0 0 1-21.228373-12.154956z" fill="#00a0dc" /><path d="M244.566515 293.479818m24.456652 0l538.046334 0q24.456652 0 24.456651 24.456652l0 48.913303q0 24.456652-24.456651 24.456652l-538.046334 0q-24.456652 0-24.456652-24.456652l0-48.913303q0-24.456652 24.456652-24.456652Z" fill="#00a0dc" /><path d="M48.913303 0h978.266062a48.913303 48.913303 0 0 1 48.913303 48.913303v782.612849a48.913303 48.913303 0 0 1-48.913303 48.913303h-97.826606v-733.699546h-782.61285v586.959637h266.381849v97.826606a48.913303 48.913303 0 0 1-48.913303 48.913303H48.913303a48.913303 48.913303 0 0 1-48.913303-48.913303v-782.612849a48.913303 48.913303 0 0 1 48.913303-48.913303z" fill="#00a0dc" /><path d="M669.305183 758.156198m-73.369955 0a73.369955 73.369955 0 1 0 146.739909 0 73.369955 73.369955 0 1 0-146.739909 0Z" fill="#ffffff" /></svg>