<?xml version="1.0" encoding="utf-8"?>
<!-- Generator: Adobe Illustrator 24.2.0, SVG Export Plug-In . SVG Version: 6.00 Build 0)  -->
<svg version="1.1" id="图层_1" xmlns="http://www.w3.org/2000/svg" xmlns:xlink="http://www.w3.org/1999/xlink" x="0px" y="0px"
	 viewBox="0 0 60 60" style="enable-background:new 0 0 60 60;" xml:space="preserve">
<style type="text/css">
	.st0{fill:#00A0DC;}
</style>
<path class="st0" d="M18.5,38.4l2.1-1.1l7.9,4.4V30.8L26.9,30L19,25.4v9l-1.7,0.9l-6.6-3.8L2.8,36v9.2l7.9,4.4l7.9-4.4L18.5,38.4z
	 M42.7,35.4l-1.6-0.9v-9l-9.5,5.4v10.9l7.9-4.4l2.1,1.1v6.8l7.9,4.4l7.9-4.4V36l-7.9-4.4L42.7,35.4z M42.7,6.9v7.3l8.4,4.6V27
	l0.8,0.5l5.5,3.2V15L42.7,6.9z M38,48.5l-7.9,4.3l-7.9-4.3l-1.3,0.8l-5.2,2.8L30.1,60l14.4-7.9l-5.2-2.8L38,48.5z M9.1,27v-8.2
	l8.4-4.6V6.9L2.8,15v15.6l5.5-3.2L9.1,27z M20.6,22.7l9.5,5.4l1.6-0.9l7.9-4.4l-7.9-4.4v-1.1l6.3-3.6v-9L30.1,0l-7.9,4.6v9l6.3,3.6
	v1.1L20.6,22.7z"/>
</svg>
