<?xml version="1.0" encoding="utf-8"?>
<!-- Generator: Adobe Illustrator 24.2.0, SVG Export Plug-In . SVG Version: 6.00 Build 0)  -->
<svg version="1.1" id="图层_1" xmlns="http://www.w3.org/2000/svg" xmlns:xlink="http://www.w3.org/1999/xlink" x="0px" y="0px"
	 viewBox="0 0 60 60" style="enable-background:new 0 0 60 60;" xml:space="preserve">
<style type="text/css">
	.st0{fill:#00A0DC;}
</style>
<path class="st0" d="M52.5,0h-45C5.4,0,3.8,1.7,3.8,3.8v52.5c0,2.1,1.7,3.8,3.8,3.8h45c2.1,0,3.8-1.7,3.8-3.8V3.8
	C56.2,1.7,54.6,0,52.5,0z M39.4,3.8H45V17l-4.2-1.7l-1.4-0.6L38,15.3L33.8,17V3.8H39.4z M52.5,56.2h-45V3.8H30v16
	c0,1.1,0.9,1.9,1.9,1.9c0.2,0,0.5,0,0.7-0.1l6.8-2.7l6.8,2.7c0.2,0.1,0.5,0.1,0.7,0.1c1,0,1.9-0.8,1.9-1.9v-16h3.8V56.2z"/>
<path class="st0" d="M15,33.8h15c1,0,1.9-0.8,1.9-1.9c0-1-0.8-1.9-1.9-1.9H15c-1,0-1.9,0.8-1.9,1.9C13.1,32.9,14,33.8,15,33.8z
	 M45,41.2H15c-1,0-1.9,0.8-1.9,1.9S14,45,15,45h30c1,0,1.9-0.8,1.9-1.9S46,41.2,45,41.2z"/>
</svg>
