<?xml version="1.0" encoding="utf-8"?>
<!-- Generator: Adobe Illustrator 24.2.0, SVG Export Plug-In . SVG Version: 6.00 Build 0)  -->
<svg version="1.1" id="图层_1" xmlns="http://www.w3.org/2000/svg" xmlns:xlink="http://www.w3.org/1999/xlink" x="0px" y="0px"
	 viewBox="0 0 60 60" style="enable-background:new 0 0 60 60;" xml:space="preserve">
<style type="text/css">
	.st0{fill:#00A0DC;}
</style>
<path class="st0" d="M43.1,60H16.9c-3.1,0-5.6-2.5-5.6-5.6V5.6c0-3.1,2.5-5.6,5.6-5.6h26.1c3.1,0,5.6,2.5,5.6,5.6v48.7
	C48.7,57.5,46.2,60,43.1,60z M16.9,2.2c-1.9,0-3.4,1.5-3.4,3.4v48.7c0,1.9,1.5,3.4,3.4,3.4h26.1c1.9,0,3.4-1.5,3.4-3.4V5.6
	c0-1.9-1.5-3.4-3.4-3.4H16.9z"/>
<path class="st0" d="M22.3,7.8h-7.2c-0.6,0-1.1-0.5-1.1-1.1s0.5-1.1,1.1-1.1h7.2c0.6,0,1.1,0.5,1.1,1.1S22.9,7.8,22.3,7.8z M25.8,54
	H11.6c-0.2,0-0.4-0.2-0.4-0.4c0-0.2,0.2-0.4,0.4-0.4h14.2c0.2,0,0.4,0.2,0.4,0.4C26.2,53.9,26,54,25.8,54z"/>
</svg>
